<mxfile modified="2024-03-21T15:32:44.967Z" host="app.diagrams.net" agent="Mozilla/5.0 (Windows NT 10.0; Win64; x64) AppleWebKit/537.36 (KHTML, like Gecko) Chrome/122.0.0.0 Safari/537.36" etag="ODPshjTkQGdNYctySBCU" version="24.0.7" type="github">
  <diagram id="l2aKFoh6-Bn0gOPZ2l0T" name="Page-1">
    <mxGraphModel dx="1257" dy="691" grid="1" gridSize="10" guides="1" tooltips="1" connect="1" arrows="1" fold="1" page="1" pageScale="1" pageWidth="1169" pageHeight="827" math="0" shadow="0">
      <root>
        <mxCell id="0" />
        <mxCell id="1" parent="0" />
        <mxCell id="TQ05000QdJhVlaVbQsyb-1" value="CIDN Block : 192.168.1.xxx/24" style="swimlane;" vertex="1" parent="1">
          <mxGeometry x="570" y="10" width="440" height="330" as="geometry" />
        </mxCell>
        <mxCell id="TQ05000QdJhVlaVbQsyb-3" value="Subnet : 192.168.1.xxx" style="swimlane;" vertex="1" parent="1">
          <mxGeometry x="590" y="50" width="390" height="280" as="geometry" />
        </mxCell>
        <mxCell id="TQ05000QdJhVlaVbQsyb-2" value="Gateway : 192.168.1.1" style="swimlane;" vertex="1" parent="TQ05000QdJhVlaVbQsyb-3">
          <mxGeometry x="120" y="40" width="150" height="97.5" as="geometry" />
        </mxCell>
        <mxCell id="TQ05000QdJhVlaVbQsyb-10" style="edgeStyle=none;curved=1;rounded=0;orthogonalLoop=1;jettySize=auto;html=1;exitX=0.5;exitY=0;exitDx=0;exitDy=0;entryX=0.5;entryY=1;entryDx=0;entryDy=0;fontSize=12;startSize=8;endSize=8;" edge="1" parent="TQ05000QdJhVlaVbQsyb-3" source="TQ05000QdJhVlaVbQsyb-9" target="TQ05000QdJhVlaVbQsyb-2">
          <mxGeometry relative="1" as="geometry" />
        </mxCell>
        <mxCell id="TQ05000QdJhVlaVbQsyb-9" value="Host : 192.168.1.103" style="swimlane;" vertex="1" parent="TQ05000QdJhVlaVbQsyb-3">
          <mxGeometry x="20" y="180" width="150" height="67.5" as="geometry" />
        </mxCell>
        <mxCell id="TQ05000QdJhVlaVbQsyb-12" style="edgeStyle=none;curved=1;rounded=0;orthogonalLoop=1;jettySize=auto;html=1;exitX=0.5;exitY=0;exitDx=0;exitDy=0;entryX=0.5;entryY=1;entryDx=0;entryDy=0;fontSize=12;startSize=8;endSize=8;" edge="1" parent="TQ05000QdJhVlaVbQsyb-3" source="TQ05000QdJhVlaVbQsyb-11" target="TQ05000QdJhVlaVbQsyb-2">
          <mxGeometry relative="1" as="geometry" />
        </mxCell>
        <mxCell id="TQ05000QdJhVlaVbQsyb-11" value="Host : 192.168.1.105" style="swimlane;" vertex="1" parent="TQ05000QdJhVlaVbQsyb-3">
          <mxGeometry x="215" y="180" width="150" height="67.5" as="geometry" />
        </mxCell>
        <mxCell id="TQ05000QdJhVlaVbQsyb-15" value="" style="edgeStyle=none;curved=1;rounded=0;orthogonalLoop=1;jettySize=auto;html=1;fontSize=12;startSize=8;endSize=8;" edge="1" parent="1" source="TQ05000QdJhVlaVbQsyb-13" target="TQ05000QdJhVlaVbQsyb-14">
          <mxGeometry relative="1" as="geometry" />
        </mxCell>
        <mxCell id="TQ05000QdJhVlaVbQsyb-13" value="Gateway : 192.168.1.1" style="rounded=0;whiteSpace=wrap;html=1;" vertex="1" parent="1">
          <mxGeometry x="400" y="414" width="120" height="60" as="geometry" />
        </mxCell>
        <mxCell id="TQ05000QdJhVlaVbQsyb-17" value="" style="edgeStyle=none;curved=1;rounded=0;orthogonalLoop=1;jettySize=auto;html=1;fontSize=12;startSize=8;endSize=8;" edge="1" parent="1" source="TQ05000QdJhVlaVbQsyb-14" target="TQ05000QdJhVlaVbQsyb-16">
          <mxGeometry relative="1" as="geometry" />
        </mxCell>
        <mxCell id="TQ05000QdJhVlaVbQsyb-14" value="CIDN Block:&lt;div&gt;192.168.1.xxx/24&lt;/div&gt;" style="rounded=0;whiteSpace=wrap;html=1;" vertex="1" parent="1">
          <mxGeometry x="550" y="414" width="120" height="60" as="geometry" />
        </mxCell>
        <mxCell id="TQ05000QdJhVlaVbQsyb-19" value="" style="edgeStyle=none;curved=1;rounded=0;orthogonalLoop=1;jettySize=auto;html=1;fontSize=12;startSize=8;endSize=8;" edge="1" parent="1" source="TQ05000QdJhVlaVbQsyb-16" target="TQ05000QdJhVlaVbQsyb-18">
          <mxGeometry relative="1" as="geometry" />
        </mxCell>
        <mxCell id="TQ05000QdJhVlaVbQsyb-16" value="Subnet :&lt;div&gt;192.168.1.xxx&lt;/div&gt;" style="rounded=0;whiteSpace=wrap;html=1;" vertex="1" parent="1">
          <mxGeometry x="700" y="414" width="120" height="60" as="geometry" />
        </mxCell>
        <mxCell id="TQ05000QdJhVlaVbQsyb-18" value="Host:&lt;div&gt;192.168.1.34&lt;/div&gt;" style="rounded=0;whiteSpace=wrap;html=1;" vertex="1" parent="1">
          <mxGeometry x="850" y="414" width="120" height="60" as="geometry" />
        </mxCell>
        <mxCell id="TQ05000QdJhVlaVbQsyb-22" style="edgeStyle=none;curved=1;rounded=0;orthogonalLoop=1;jettySize=auto;html=1;exitX=0.55;exitY=0.95;exitDx=0;exitDy=0;exitPerimeter=0;entryX=0.5;entryY=0;entryDx=0;entryDy=0;fontSize=12;startSize=8;endSize=8;" edge="1" parent="1" source="TQ05000QdJhVlaVbQsyb-20" target="TQ05000QdJhVlaVbQsyb-13">
          <mxGeometry relative="1" as="geometry" />
        </mxCell>
        <mxCell id="TQ05000QdJhVlaVbQsyb-20" value="Internet" style="ellipse;shape=cloud;whiteSpace=wrap;html=1;" vertex="1" parent="1">
          <mxGeometry x="380" y="290" width="120" height="80" as="geometry" />
        </mxCell>
      </root>
    </mxGraphModel>
  </diagram>
</mxfile>
